<svg width="131" height="131" viewBox="0 0 131 131" fill="none" xmlns="http://www.w3.org/2000/svg">
<path opacity="0.1" d="M119.681 63.9952C119.681 94.0948 95.2807 118.495 65.1812 118.495C35.0816 118.495 10.6812 94.0948 10.6812 63.9952C10.6812 33.8957 35.0816 9.49524 65.1812 9.49524C95.2807 9.49524 119.681 33.8957 119.681 63.9952Z" fill="#D0021B"/>
<path d="M2.68115 119.495H128.681V120.495H2.68115V119.495Z" fill="#6A6A6A"/>
<path d="M117.054 34H15C14.4477 34 14 34.4477 14 35V103.698C14 104.25 14.4477 104.698 15 104.698H117.054C117.606 104.698 118.054 104.25 118.054 103.698V35C118.054 34.4477 117.606 34 117.054 34Z" fill="white"/>
<path d="M15 35V103.698H117.054V35H15ZM119.054 103.698C119.054 104.803 118.158 105.698 117.054 105.698H15C13.8954 105.698 13 104.803 13 103.698V35C13 33.8954 13.8954 33 15 33H117.054C118.158 33 119.054 33.8954 119.054 35V103.698Z" fill="#6A6A6A"/>
<path d="M59.4928 105.314C59.6017 104.866 60.0031 104.55 60.4645 104.55H72.4447C72.906 104.55 73.3075 104.866 73.4164 105.314L75.1456 112.433C75.2985 113.062 74.8217 113.669 74.1739 113.669H58.7353C58.0875 113.669 57.6106 113.062 57.7636 112.433L59.4928 105.314Z" fill="white"/>
<path d="M72.4447 103.55C73.3676 103.55 74.1702 104.182 74.3881 105.077V105.078L76.1176 112.196C76.4235 113.455 75.4699 114.669 74.1742 114.669H58.7348C57.4394 114.669 56.4853 113.455 56.7914 112.196L58.5209 105.078V105.077C58.7388 104.182 59.5413 103.55 60.4643 103.55H72.4447ZM58.7358 112.669H74.1742L72.4447 105.55H60.4643L58.7358 112.669Z" fill="#6A6A6A"/>
<path d="M47.7852 114.103C47.7852 113.55 48.2329 113.103 48.7852 113.103H83.2724C83.8247 113.103 84.2724 113.55 84.2724 114.103V118.656C84.2724 119.208 83.8247 119.656 83.2724 119.656H48.7852C48.2329 119.656 47.7852 119.208 47.7852 118.656V114.103Z" fill="white"/>
<path d="M48.7852 114.103V118.656H83.2725V114.103H48.7852ZM85.2725 118.656C85.2725 119.76 84.3772 120.656 83.2725 120.656H48.7852C47.6804 120.656 46.7852 119.76 46.7852 118.656V114.103C46.7852 112.997 47.681 112.103 48.7852 112.103H83.2725C84.3765 112.103 85.2725 112.997 85.2725 114.103V118.656Z" fill="#6A6A6A"/>
<path d="M118 94V96H15V94H118Z" fill="#6A6A6A"/>
<mask id="mask0_12501_48864" style="mask-type:luminance" maskUnits="userSpaceOnUse" x="54" y="45" width="25" height="25">
<path d="M78.1626 45.2181H54.1626V69.2181H78.1626V45.2181Z" fill="white"/>
</mask>
<g mask="url(#mask0_12501_48864)">
<path opacity="0.2" d="M78.2632 45.1183V69.3185H54.063V45.1183H78.2632ZM54.1626 69.2179H78.1626V45.2179H54.1626V69.2179Z" fill="#6A6A6A"/>
<path d="M65.6426 60.1142C65.5359 60.1142 65.4453 60.0769 65.3706 60.0022C65.2959 59.9275 65.2586 59.8369 65.2586 59.7302V52.4022C65.2586 52.2955 65.2959 52.2049 65.3706 52.1302C65.4453 52.0555 65.5359 52.0182 65.6426 52.0182H66.9386C67.0559 52.0182 67.1466 52.0555 67.2106 52.1302C67.2853 52.1942 67.3226 52.2849 67.3226 52.4022V59.7302C67.3226 59.8369 67.2853 59.9275 67.2106 60.0022C67.1466 60.0769 67.0559 60.1142 66.9386 60.1142H65.6426ZM65.5466 63.2182C65.4399 63.2182 65.3493 63.1809 65.2746 63.1062C65.1999 63.0315 65.1626 62.9409 65.1626 62.8342V61.3462C65.1626 61.2289 65.1999 61.1329 65.2746 61.0582C65.3493 60.9835 65.4399 60.9462 65.5466 60.9462H67.0346C67.1519 60.9462 67.2479 60.9835 67.3226 61.0582C67.3973 61.1329 67.4346 61.2289 67.4346 61.3462V62.8342C67.4346 62.9409 67.3973 63.0315 67.3226 63.1062C67.2479 63.1809 67.1519 63.2182 67.0346 63.2182H65.5466Z" fill="#6A6A6A"/>
</g>
<path fill-rule="evenodd" clip-rule="evenodd" d="M51.3433 73.2659C51.3433 72.9897 51.5671 72.7659 51.8433 72.7659H80.2102C80.4864 72.7659 80.7102 72.9897 80.7102 73.2659C80.7102 73.542 80.4864 73.7659 80.2102 73.7659H51.8433C51.5671 73.7659 51.3433 73.542 51.3433 73.2659Z" fill="#6A6A6A"/>
<path fill-rule="evenodd" clip-rule="evenodd" d="M55.1851 83.2659C55.1851 82.9897 55.3503 82.7659 55.5542 82.7659H76.4995C76.7034 82.7659 76.8687 82.9897 76.8687 83.2659C76.8687 83.542 76.7034 83.7659 76.4995 83.7659H55.5542C55.3503 83.7659 55.1851 83.542 55.1851 83.2659Z" fill="#6A6A6A"/>
<path fill-rule="evenodd" clip-rule="evenodd" d="M51.3433 78.2659C51.3433 77.9897 51.5671 77.7659 51.8433 77.7659H80.2102C80.4864 77.7659 80.7102 77.9897 80.7102 78.2659C80.7102 78.542 80.4864 78.7659 80.2102 78.7659H51.8433C51.5671 78.7659 51.3433 78.542 51.3433 78.2659Z" fill="#6A6A6A"/>
</svg>
