<svg width="40" height="40" viewBox="0 0 40 40" fill="none" xmlns="http://www.w3.org/2000/svg">
<path d="M29.1367 13.0732C29.236 12.9742 29.3973 12.9757 29.4941 13.0771L35.9326 19.8291C36.0247 19.9257 36.0248 20.0782 35.9326 20.1748L29.4932 26.9238C29.3963 27.0253 29.235 27.027 29.1357 26.9277L28.0742 25.8672C27.9786 25.7715 27.9765 25.6169 28.0693 25.5185L32.3398 21.0019H4.25C4.11193 21.0019 4 20.89 4 20.7519V19.2519C4 19.1138 4.11193 19.0019 4.25 19.0019H32.3428L28.0703 14.4834C27.9773 14.385 27.9795 14.2304 28.0752 14.1347L29.1367 13.0732Z" fill="black"/>
</svg>
