<svg width="40" height="40" viewBox="0 0 40 40" fill="none" xmlns="http://www.w3.org/2000/svg">
<path d="M10.8652 13.0732C10.766 12.9742 10.6046 12.9757 10.5078 13.0771L4.06934 19.8291C3.97721 19.9257 3.97719 20.0782 4.06934 20.1748L10.5088 26.9238C10.6057 27.0253 10.767 27.027 10.8662 26.9277L11.9277 25.8672C12.0234 25.7715 12.0254 25.6169 11.9326 25.5185L7.66211 21.0019H35.752C35.89 21.0019 36.002 20.89 36.002 20.7519V19.2519C36.002 19.1138 35.89 19.0019 35.752 19.0019H7.65918L11.9316 14.4834C12.0246 14.385 12.0225 14.2304 11.9268 14.1347L10.8652 13.0732Z" fill="black"/>
</svg>
